# Blender v2.80 (sub 75) OBJ File: ''
# www.blender.org
mtllib square_bottle_deko.mtl
o Cylinder_Cylinder.002
v 0.000000 0.162078 -0.017516
v 0.000000 0.183340 -0.017516
v 0.006703 0.162078 -0.016183
v 0.006703 0.183340 -0.016183
v 0.012386 0.162078 -0.012386
v 0.012386 0.183340 -0.012386
v 0.016183 0.162078 -0.006703
v 0.016183 0.183340 -0.006703
v 0.017516 0.162078 0.000000
v 0.017516 0.183340 0.000000
v 0.016183 0.162078 0.006703
v 0.016183 0.183340 0.006703
v 0.012386 0.162078 0.012386
v 0.012386 0.183340 0.012386
v 0.006703 0.162078 0.016183
v 0.006703 0.183340 0.016183
v 0.000000 0.162078 0.017516
v 0.000000 0.183340 0.017516
v -0.006703 0.162078 0.016183
v -0.006703 0.183340 0.016183
v -0.012386 0.162078 0.012386
v -0.012386 0.183340 0.012386
v -0.016183 0.162078 0.006703
v -0.016183 0.183340 0.006703
v -0.017516 0.162078 -0.000000
v -0.017516 0.183340 -0.000000
v -0.016183 0.162078 -0.006703
v -0.016183 0.183340 -0.006703
v -0.012386 0.162078 -0.012386
v -0.012386 0.183340 -0.012386
v -0.006703 0.162078 -0.016183
v -0.006703 0.183340 -0.016183
v 0.000000 0.160111 -0.015262
v 0.005841 0.160111 -0.014100
v 0.010792 0.160111 -0.010792
v 0.014100 0.160111 -0.005841
v 0.015262 0.160111 0.000000
v 0.014100 0.160111 0.005841
v 0.010792 0.160111 0.010792
v 0.005841 0.160111 0.014100
v 0.000000 0.160111 0.015262
v -0.005841 0.160111 0.014100
v -0.010792 0.160111 0.010792
v -0.014100 0.160111 0.005841
v -0.015262 0.160111 -0.000000
v -0.014100 0.160111 -0.005841
v -0.010792 0.160111 -0.010792
v -0.005841 0.160111 -0.014100
v 0.000000 0.184960 -0.012594
v 0.004819 0.184960 -0.011635
v 0.008905 0.184960 -0.008905
v 0.011635 0.184960 -0.004819
v 0.012594 0.184960 0.000000
v 0.011635 0.184960 0.004819
v 0.008905 0.184960 0.008905
v 0.004819 0.184960 0.011635
v 0.000000 0.184960 0.012594
v -0.004819 0.184960 0.011635
v -0.008905 0.184960 0.008905
v -0.011635 0.184960 0.004819
v -0.012594 0.184960 -0.000000
v -0.011635 0.184960 -0.004819
v -0.008905 0.184960 -0.008905
v -0.004819 0.184960 -0.011635
v -0.012386 0.179454 0.012386
v 0.000000 0.179454 0.017516
v 0.012386 0.179454 0.012386
v 0.017516 0.179454 0.000000
v 0.012386 0.179454 -0.012386
v -0.006703 0.179454 -0.016183
v 0.000000 0.179454 -0.017516
v -0.016183 0.179454 0.006703
v -0.006703 0.179454 0.016183
v 0.006703 0.179454 0.016183
v 0.016183 0.179454 0.006703
v 0.016183 0.179454 -0.006703
v 0.006703 0.179454 -0.016183
v -0.016183 0.179454 -0.006703
v -0.012386 0.179454 -0.012386
v -0.017516 0.179454 -0.000000
v -0.012386 0.177525 0.012386
v 0.000000 0.177525 0.017516
v 0.012386 0.177525 0.012386
v 0.017516 0.177525 0.000000
v 0.012386 0.177525 -0.012386
v 0.000000 0.177525 -0.017516
v -0.006703 0.177525 -0.016183
v -0.016183 0.177525 -0.006703
v -0.016183 0.177525 0.006703
v -0.006703 0.177525 0.016183
v 0.006703 0.177525 0.016183
v 0.016183 0.177525 0.006703
v 0.016183 0.177525 -0.006703
v 0.006703 0.177525 -0.016183
v -0.012386 0.177525 -0.012386
v -0.017516 0.177525 -0.000000
v -0.012386 0.169409 0.012386
v 0.000000 0.169409 0.017516
v 0.012386 0.169409 0.012386
v 0.017516 0.169409 0.000000
v 0.012386 0.169409 -0.012386
v 0.000000 0.169409 -0.017516
v -0.006703 0.169409 -0.016183
v -0.016183 0.169409 -0.006703
v -0.016183 0.169409 0.006703
v -0.006703 0.169409 0.016183
v 0.006703 0.169409 0.016183
v 0.016183 0.169409 0.006703
v 0.016183 0.169409 -0.006703
v 0.006703 0.169409 -0.016183
v -0.012386 0.169409 -0.012386
v -0.017516 0.169409 -0.000000
v -0.012386 0.167641 0.012386
v 0.000000 0.167641 0.017516
v 0.012386 0.167641 0.012386
v 0.017516 0.167641 0.000000
v 0.012386 0.167641 -0.012386
v -0.006703 0.167641 -0.016183
v -0.016183 0.167641 -0.006703
v 0.000000 0.167641 -0.017516
v -0.006703 0.167641 0.016183
v 0.006703 0.167641 0.016183
v -0.016183 0.167641 0.006703
v 0.016183 0.167641 -0.006703
v 0.006703 0.167641 -0.016183
v 0.016183 0.167641 0.006703
v -0.012386 0.167641 -0.012386
v -0.017516 0.167641 -0.000000
v 0.000000 0.168485 0.016600
v -0.011738 0.168485 -0.011738
v -0.006353 0.168485 0.015336
v 0.011738 0.168485 0.011738
v -0.016600 0.168485 -0.000000
v 0.006353 0.168485 0.015336
v 0.016600 0.168485 0.000000
v -0.015336 0.168485 0.006353
v 0.011738 0.168485 -0.011738
v 0.000000 0.168485 -0.016600
v 0.015336 0.168485 -0.006353
v -0.006353 0.168485 -0.015336
v 0.006353 0.168485 -0.015336
v -0.015336 0.168485 -0.006353
v -0.011738 0.168485 0.011738
v 0.015336 0.168485 0.006353
v 0.006382 0.178409 0.015407
v 0.011792 0.178409 -0.011792
v 0.015407 0.178409 0.006382
v 0.000000 0.178409 -0.016676
v 0.015407 0.178409 -0.006382
v -0.006382 0.178409 -0.015407
v -0.011792 0.178409 0.011792
v 0.006382 0.178409 -0.015407
v -0.015407 0.178409 -0.006382
v 0.000000 0.178409 0.016676
v -0.011792 0.178409 -0.011792
v -0.015407 0.178409 0.006382
v 0.011792 0.178409 0.011792
v -0.016676 0.178409 -0.000000
v -0.006382 0.178409 0.015407
v 0.016676 0.178409 0.000000
vt 1.000000 0.500000
vt 1.000000 0.630827
vt 0.937500 0.630827
vt 0.937500 0.500000
vt 0.875000 0.630827
vt 0.875000 0.500000
vt 0.812500 0.630827
vt 0.812500 0.500000
vt 0.750000 0.630827
vt 0.750000 0.500000
vt 0.687500 0.630827
vt 0.687500 0.500000
vt 0.625000 0.630827
vt 0.625000 0.500000
vt 0.562500 0.630827
vt 0.562500 0.500000
vt 0.500000 0.630827
vt 0.500000 0.500000
vt 0.437500 0.630827
vt 0.437500 0.500000
vt 0.375000 0.630827
vt 0.375000 0.500000
vt 0.312500 0.630827
vt 0.312500 0.500000
vt 0.250000 0.630827
vt 0.250000 0.500000
vt 0.187500 0.630827
vt 0.187500 0.500000
vt 0.125000 0.630827
vt 0.125000 0.500000
vt 0.750000 1.000000
vt 0.812500 1.000000
vt 0.812500 1.000000
vt 0.750000 1.000000
vt 0.062500 0.630827
vt 0.062500 0.500000
vt 0.000000 0.630827
vt 0.000000 0.500000
vt 0.875000 0.500000
vt 0.937500 0.500000
vt 0.750000 0.490000
vt 0.841844 0.471731
vt 0.919706 0.419706
vt 0.971731 0.341844
vt 0.990000 0.250000
vt 0.971731 0.158156
vt 0.919706 0.080294
vt 0.841844 0.028269
vt 0.750000 0.010000
vt 0.658156 0.028269
vt 0.580294 0.080294
vt 0.528269 0.158156
vt 0.510000 0.250000
vt 0.528269 0.341844
vt 0.580294 0.419706
vt 0.658156 0.471731
vt 0.562500 0.500000
vt 0.625000 0.500000
vt 0.250000 0.500000
vt 0.312500 0.500000
vt 0.687500 0.500000
vt 0.750000 0.500000
vt 0.375000 0.500000
vt 0.437500 0.500000
vt 0.062500 0.500000
vt 0.125000 0.500000
vt 0.812500 0.500000
vt 0.500000 0.500000
vt 0.187500 0.500000
vt 1.000000 0.500000
vt 0.000000 0.500000
vt 0.341844 0.471731
vt 0.250000 0.490000
vt 0.158156 0.471731
vt 0.080294 0.419706
vt 0.028269 0.341844
vt 0.010000 0.250000
vt 0.028269 0.158156
vt 0.080294 0.080294
vt 0.158156 0.028269
vt 0.250000 0.010000
vt 0.341844 0.028269
vt 0.419706 0.080294
vt 0.471731 0.158156
vt 0.490000 0.250000
vt 0.471731 0.341844
vt 0.419706 0.419706
vt 0.437500 1.000000
vt 0.500000 1.000000
vt 0.500000 1.000000
vt 0.437500 1.000000
vt 0.125000 1.000000
vt 0.187500 1.000000
vt 0.187500 1.000000
vt 0.125000 1.000000
vt 0.875000 1.000000
vt 0.937500 1.000000
vt 0.937500 1.000000
vt 0.875000 1.000000
vt 0.562500 1.000000
vt 0.625000 1.000000
vt 0.625000 1.000000
vt 0.562500 1.000000
vt 0.250000 1.000000
vt 0.312500 1.000000
vt 0.312500 1.000000
vt 0.250000 1.000000
vt 0.687500 1.000000
vt 0.687500 1.000000
vt 0.375000 1.000000
vt 0.375000 1.000000
vt 0.062500 1.000000
vt 0.062500 1.000000
vt 1.000000 1.000000
vt 1.000000 1.000000
vt 0.000000 1.000000
vt 0.000000 1.000000
vt 0.937500 0.908618
vt 1.000000 0.908619
vt 0.812500 0.908618
vt 0.875000 0.908618
vt 0.687500 0.908618
vt 0.750000 0.908618
vt 0.562500 0.908618
vt 0.625000 0.908618
vt 0.437500 0.908618
vt 0.500000 0.908618
vt 0.312500 0.908618
vt 0.375000 0.908618
vt 0.187500 0.908618
vt 0.250000 0.908618
vt 0.000000 0.908619
vt 0.062500 0.908618
vt 0.125000 0.908618
vt 0.937500 0.863264
vt 1.000000 0.863264
vt 1.000000 0.884052
vt 0.937500 0.884052
vt 0.812500 0.863264
vt 0.875000 0.863264
vt 0.875000 0.884052
vt 0.812500 0.884052
vt 0.687500 0.863264
vt 0.750000 0.863264
vt 0.750000 0.884052
vt 0.687500 0.884052
vt 0.562500 0.863264
vt 0.625000 0.863264
vt 0.625000 0.884052
vt 0.562500 0.884052
vt 0.437500 0.863264
vt 0.500000 0.863264
vt 0.500000 0.884052
vt 0.437500 0.884052
vt 0.312500 0.863264
vt 0.375000 0.863264
vt 0.375000 0.884052
vt 0.312500 0.884052
vt 0.187500 0.863264
vt 0.250000 0.863264
vt 0.250000 0.884052
vt 0.187500 0.884052
vt 0.000000 0.863264
vt 0.062500 0.863264
vt 0.062500 0.884052
vt 0.000000 0.884052
vt 0.125000 0.863264
vt 0.125000 0.884052
vt 0.937500 0.672401
vt 1.000000 0.672401
vt 0.812500 0.672401
vt 0.875000 0.672401
vt 0.687500 0.672401
vt 0.750000 0.672401
vt 0.562500 0.672401
vt 0.625000 0.672401
vt 0.437500 0.672401
vt 0.500000 0.672401
vt 0.312500 0.672401
vt 0.375000 0.672401
vt 0.187500 0.672401
vt 0.250000 0.672401
vt 0.000000 0.672401
vt 0.062500 0.672401
vt 0.125000 0.672401
vt 1.000000 0.655394
vt 0.937500 0.655394
vt 0.875000 0.655394
vt 0.812500 0.655394
vt 0.750000 0.655394
vt 0.687500 0.655394
vt 0.625000 0.655394
vt 0.562500 0.655394
vt 0.500000 0.655394
vt 0.437500 0.655394
vt 0.375000 0.655394
vt 0.312500 0.655394
vt 0.250000 0.655394
vt 0.187500 0.655394
vt 0.062500 0.655394
vt 0.000000 0.655394
vt 0.125000 0.655394
vn 0.0000 -0.3956 -0.9184
vn 0.0000 0.3843 -0.9232
vn 0.3533 0.3843 -0.8529
vn 0.3515 -0.3956 -0.8485
vn 0.6528 0.3843 -0.6528
vn 0.6494 -0.3956 -0.6494
vn 0.8529 0.3843 -0.3533
vn 0.8485 -0.3956 -0.3515
vn 0.9232 0.3843 0.0000
vn 0.9184 -0.3956 0.0000
vn 0.8529 0.3843 0.3533
vn 0.8485 -0.3956 0.3515
vn 0.6528 0.3843 0.6528
vn 0.6494 -0.3956 0.6494
vn 0.3533 0.3843 0.8529
vn 0.3515 -0.3956 0.8485
vn 0.0000 0.3843 0.9232
vn 0.0000 -0.3956 0.9184
vn -0.3533 0.3843 0.8529
vn -0.3515 -0.3956 0.8485
vn -0.6528 0.3843 0.6528
vn -0.6494 -0.3956 0.6494
vn -0.8529 0.3843 0.3533
vn -0.8485 -0.3956 0.3515
vn -0.9232 0.3843 0.0000
vn -0.9184 -0.3956 0.0000
vn -0.8529 0.3843 -0.3533
vn -0.8485 -0.3956 -0.3515
vn -0.6528 0.3843 -0.6528
vn -0.6494 -0.3956 -0.6494
vn 0.8325 0.5539 0.0000
vn 0.7692 0.5539 -0.3186
vn 0.1639 0.9841 -0.0679
vn 0.1775 0.9841 0.0000
vn -0.3533 0.3843 -0.8529
vn -0.3515 -0.3956 -0.8485
vn 0.2746 -0.9215 -0.2746
vn 0.1486 -0.9215 -0.3588
vn 0.0000 -0.9215 -0.3883
vn 0.3588 -0.9215 -0.1486
vn 0.3883 -0.9215 0.0000
vn 0.3588 -0.9215 0.1486
vn 0.2746 -0.9215 0.2746
vn 0.1486 -0.9215 0.3588
vn 0.0000 -0.9215 0.3883
vn -0.1486 -0.9215 0.3588
vn -0.2746 -0.9215 0.2746
vn -0.3588 -0.9215 0.1486
vn -0.3883 -0.9215 0.0000
vn -0.3588 -0.9215 -0.1486
vn -0.2746 -0.9215 -0.2746
vn -0.1486 -0.9215 -0.3588
vn 0.0679 0.9841 -0.1639
vn 0.0000 0.9841 -0.1775
vn -0.0679 0.9841 -0.1639
vn -0.1255 0.9841 -0.1255
vn -0.1639 0.9841 -0.0679
vn -0.1775 0.9841 0.0000
vn -0.1639 0.9841 0.0679
vn -0.1255 0.9841 0.1255
vn -0.0679 0.9841 0.1639
vn 0.0000 0.9841 0.1775
vn 0.0679 0.9841 0.1639
vn 0.1255 0.9841 0.1255
vn 0.1639 0.9841 0.0679
vn 0.1255 0.9841 -0.1255
vn -0.3186 0.5539 0.7692
vn 0.0000 0.5539 0.8325
vn -0.5887 0.5539 -0.5887
vn -0.7692 0.5539 -0.3186
vn 0.5887 0.5539 -0.5887
vn 0.3186 0.5539 -0.7692
vn 0.3186 0.5539 0.7692
vn 0.5887 0.5539 0.5887
vn -0.8325 0.5539 0.0000
vn -0.7692 0.5539 0.3186
vn 0.7692 0.5539 0.3186
vn -0.5887 0.5539 0.5887
vn -0.3186 0.5539 -0.7692
vn 0.0000 0.5539 -0.8325
vn 0.3626 -0.3199 -0.8753
vn 0.0000 -0.3199 -0.9474
vn 0.8753 -0.3199 -0.3626
vn 0.6699 -0.3199 -0.6699
vn 0.8753 -0.3199 0.3626
vn 0.9474 -0.3199 0.0000
vn 0.3626 -0.3199 0.8753
vn 0.6699 -0.3199 0.6699
vn -0.3626 -0.3199 0.8753
vn 0.0000 -0.3199 0.9474
vn -0.8753 -0.3199 0.3626
vn -0.6699 -0.3199 0.6699
vn -0.8753 -0.3199 -0.3626
vn -0.9474 -0.3199 0.0000
vn -0.3626 -0.3199 -0.8753
vn -0.6699 -0.3199 -0.6699
vn 0.3576 0.3559 -0.8634
vn 0.0000 0.3559 -0.9345
vn 0.0000 0.0451 -0.9990
vn 0.3823 0.0451 -0.9229
vn 0.8634 0.3559 -0.3576
vn 0.6608 0.3559 -0.6608
vn 0.7064 0.0451 -0.7064
vn 0.9229 0.0452 -0.3823
vn 0.8634 0.3559 0.3576
vn 0.9345 0.3559 0.0000
vn 0.9990 0.0452 0.0000
vn 0.9229 0.0452 0.3823
vn 0.3576 0.3559 0.8634
vn 0.6608 0.3559 0.6608
vn 0.7064 0.0452 0.7064
vn 0.3823 0.0452 0.9229
vn -0.3576 0.3559 0.8634
vn 0.0000 0.3559 0.9345
vn 0.0000 0.0452 0.9990
vn -0.3823 0.0452 0.9229
vn -0.8634 0.3559 0.3576
vn -0.6608 0.3559 0.6608
vn -0.7064 0.0452 0.7064
vn -0.9229 0.0452 0.3823
vn -0.8634 0.3559 -0.3576
vn -0.9345 0.3559 0.0000
vn -0.9990 0.0452 0.0000
vn -0.9229 0.0452 -0.3823
vn -0.3576 0.3559 -0.8634
vn -0.3823 0.0452 -0.9229
vn -0.6608 0.3559 -0.6608
vn -0.7064 0.0452 -0.7064
vn 0.3563 -0.3650 -0.8601
vn 0.0000 -0.3650 -0.9310
vn 0.8601 -0.3650 -0.3563
vn 0.6583 -0.3650 -0.6583
vn 0.8601 -0.3650 0.3563
vn 0.9310 -0.3650 0.0000
vn 0.3563 -0.3650 0.8601
vn 0.6583 -0.3650 0.6583
vn -0.3563 -0.3650 0.8601
vn 0.0000 -0.3650 0.9310
vn -0.8601 -0.3650 0.3563
vn -0.6583 -0.3650 0.6583
vn -0.8601 -0.3650 -0.3563
vn -0.9310 -0.3650 0.0000
vn -0.3563 -0.3650 -0.8601
vn -0.6583 -0.3650 -0.6583
vn 0.0000 0.0250 -0.9997
vn 0.3825 0.0250 -0.9236
vn 0.7069 0.0250 -0.7069
vn 0.9236 0.0250 -0.3825
vn 0.9997 0.0250 0.0000
vn 0.9236 0.0250 0.3825
vn 0.7069 0.0250 0.7069
vn 0.3825 0.0250 0.9236
vn 0.0000 0.0250 0.9997
vn -0.3825 0.0250 0.9236
vn -0.7069 0.0250 0.7069
vn -0.9236 0.0250 0.3825
vn -0.9997 0.0250 0.0000
vn -0.9236 0.0250 -0.3825
vn -0.3825 0.0250 -0.9236
vn -0.7069 0.0250 -0.7069
usemtl None
s 1
f 1/1/1 120/2/2 125/3/3 3/4/4
f 3/4/4 125/3/3 117/5/5 5/6/6
f 5/6/6 117/5/5 124/7/7 7/8/8
f 7/8/8 124/7/7 116/9/9 9/10/10
f 9/10/10 116/9/9 126/11/11 11/12/12
f 11/12/12 126/11/11 115/13/13 13/14/14
f 13/14/14 115/13/13 122/15/15 15/16/16
f 15/16/16 122/15/15 114/17/17 17/18/18
f 17/18/18 114/17/17 121/19/19 19/20/20
f 19/20/20 121/19/19 113/21/21 21/22/22
f 21/22/22 113/21/21 123/23/23 23/24/24
f 23/24/24 123/23/23 128/25/25 25/26/26
f 25/26/26 128/25/25 119/27/27 27/28/28
f 27/28/28 119/27/27 127/29/29 29/30/30
f 10/31/31 8/32/32 52/33/33 53/34/34
f 29/30/30 127/29/29 118/35/35 31/36/36
f 31/36/36 118/35/35 120/37/2 1/38/1
f 3/4/4 5/6/6 35/39/37 34/40/38
f 33/41/39 34/42/38 35/43/37 36/44/40 37/45/41 38/46/42 39/47/43 40/48/44 41/49/45 42/50/46 43/51/47 44/52/48 45/53/49 46/54/50 47/55/51 48/56/52
f 13/14/14 15/16/16 40/57/44 39/58/43
f 23/24/24 25/26/26 45/59/49 44/60/48
f 9/10/10 11/12/12 38/61/42 37/62/41
f 19/20/20 21/22/22 43/63/47 42/64/46
f 29/30/30 31/36/36 48/65/52 47/66/51
f 5/6/6 7/8/8 36/67/40 35/39/37
f 15/16/16 17/18/18 41/68/45 40/57/44
f 25/26/26 27/28/28 46/69/50 45/59/49
f 1/1/1 3/4/4 34/40/38 33/70/39
f 11/12/12 13/14/14 39/58/43 38/61/42
f 21/22/22 23/24/24 44/60/48 43/63/47
f 31/36/36 1/38/1 33/71/39 48/65/52
f 7/8/8 9/10/10 37/62/41 36/67/40
f 17/18/18 19/20/20 42/64/46 41/68/45
f 27/28/28 29/30/30 47/66/51 46/69/50
f 50/72/53 49/73/54 64/74/55 63/75/56 62/76/57 61/77/58 60/78/59 59/79/60 58/80/61 57/81/62 56/82/63 55/83/64 54/84/65 53/85/34 52/86/33 51/87/66
f 20/88/67 18/89/68 57/90/62 58/91/61
f 30/92/69 28/93/70 62/94/57 63/95/56
f 6/96/71 4/97/72 50/98/53 51/99/66
f 16/100/73 14/101/74 55/102/64 56/103/63
f 26/104/75 24/105/76 60/106/59 61/107/58
f 12/108/77 10/31/31 53/34/34 54/109/65
f 22/110/78 20/88/67 58/91/61 59/111/60
f 32/112/79 30/92/69 63/95/56 64/113/55
f 8/32/32 6/96/71 51/99/66 52/33/33
f 18/89/68 16/100/73 56/103/63 57/90/62
f 4/97/72 2/114/80 49/115/54 50/98/53
f 28/93/70 26/104/75 61/107/58 62/94/57
f 14/101/74 12/108/77 54/109/65 55/102/64
f 24/105/76 22/110/78 59/111/60 60/106/59
f 2/116/80 32/112/79 64/113/55 49/117/54
f 77/118/81 71/119/82 2/114/80 4/97/72
f 76/120/83 69/121/84 6/96/71 8/32/32
f 75/122/85 68/123/86 10/31/31 12/108/77
f 74/124/87 67/125/88 14/101/74 16/100/73
f 73/126/89 66/127/90 18/89/68 20/88/67
f 72/128/91 65/129/92 22/110/78 24/105/76
f 78/130/93 80/131/94 26/104/75 28/93/70
f 71/132/82 70/133/95 32/112/79 2/116/80
f 69/121/84 77/118/81 4/97/72 6/96/71
f 68/123/86 76/120/83 8/32/32 10/31/31
f 67/125/88 75/122/85 12/108/77 14/101/74
f 66/127/90 74/124/87 16/100/73 18/89/68
f 65/129/92 73/126/89 20/88/67 22/110/78
f 80/131/94 72/128/91 24/105/76 26/104/75
f 79/134/96 78/130/93 28/93/70 30/92/69
f 70/133/95 79/134/96 30/92/69 32/112/79
f 94/135/97 86/136/98 148/137/99 152/138/100
f 93/139/101 85/140/102 146/141/103 149/142/104
f 92/143/105 84/144/106 160/145/107 147/146/108
f 91/147/109 83/148/110 157/149/111 145/150/112
f 90/151/113 82/152/114 154/153/115 159/154/116
f 89/155/117 81/156/118 151/157/119 156/158/120
f 88/159/121 96/160/122 158/161/123 153/162/124
f 86/163/98 87/164/125 150/165/126 148/166/99
f 85/140/102 94/135/97 152/138/100 146/141/103
f 84/144/106 93/139/101 149/142/104 160/145/107
f 83/148/110 92/143/105 147/146/108 157/149/111
f 82/152/114 91/147/109 145/150/112 154/153/115
f 81/156/118 90/151/113 159/154/116 151/157/119
f 96/160/122 89/155/117 156/158/120 158/161/123
f 95/167/127 88/159/121 153/162/124 155/168/128
f 87/164/125 95/167/127 155/168/128 150/165/126
f 110/169/129 102/170/130 86/136/98 94/135/97
f 109/171/131 101/172/132 85/140/102 93/139/101
f 108/173/133 100/174/134 84/144/106 92/143/105
f 107/175/135 99/176/136 83/148/110 91/147/109
f 106/177/137 98/178/138 82/152/114 90/151/113
f 105/179/139 97/180/140 81/156/118 89/155/117
f 104/181/141 112/182/142 96/160/122 88/159/121
f 102/183/130 103/184/143 87/164/125 86/163/98
f 101/172/132 110/169/129 94/135/97 85/140/102
f 100/174/134 109/171/131 93/139/101 84/144/106
f 99/176/136 108/173/133 92/143/105 83/148/110
f 98/178/138 107/175/135 91/147/109 82/152/114
f 97/180/140 106/177/137 90/151/113 81/156/118
f 112/182/142 105/179/139 89/155/117 96/160/122
f 111/185/144 104/181/141 88/159/121 95/167/127
f 103/184/143 111/185/144 95/167/127 87/164/125
f 125/3/3 120/2/2 138/186/145 141/187/146
f 124/7/7 117/5/5 137/188/147 139/189/148
f 126/11/11 116/9/9 135/190/149 144/191/150
f 122/15/15 115/13/13 132/192/151 134/193/152
f 121/19/19 114/17/17 129/194/153 131/195/154
f 123/23/23 113/21/21 143/196/155 136/197/156
f 119/27/27 128/25/25 133/198/157 142/199/158
f 120/37/2 118/35/35 140/200/159 138/201/145
f 117/5/5 125/3/3 141/187/146 137/188/147
f 116/9/9 124/7/7 139/189/148 135/190/149
f 115/13/13 126/11/11 144/191/150 132/192/151
f 114/17/17 122/15/15 134/193/152 129/194/153
f 113/21/21 121/19/19 131/195/154 143/196/155
f 128/25/25 123/23/23 136/197/156 133/198/157
f 127/29/29 119/27/27 142/199/158 130/202/160
f 118/35/35 127/29/29 130/202/160 140/200/159
f 141/187/146 138/186/145 102/170/130 110/169/129
f 144/191/150 135/190/149 100/174/134 108/173/133
f 131/195/154 129/194/153 98/178/138 106/177/137
f 142/199/158 133/198/157 112/182/142 104/181/141
f 137/188/147 141/187/146 110/169/129 101/172/132
f 132/192/151 144/191/150 108/173/133 99/176/136
f 143/196/155 131/195/154 106/177/137 97/180/140
f 130/202/160 142/199/158 104/181/141 111/185/144
f 139/189/148 137/188/147 101/172/132 109/171/131
f 134/193/152 132/192/151 99/176/136 107/175/135
f 136/197/156 143/196/155 97/180/140 105/179/139
f 138/201/145 140/200/159 103/184/143 102/183/130
f 135/190/149 139/189/148 109/171/131 100/174/134
f 129/194/153 134/193/152 107/175/135 98/178/138
f 133/198/157 136/197/156 105/179/139 112/182/142
f 140/200/159 130/202/160 111/185/144 103/184/143
f 149/142/104 146/141/103 69/121/84 76/120/83
f 145/150/112 157/149/111 67/125/88 74/124/87
f 156/158/120 151/157/119 65/129/92 72/128/91
f 148/166/99 150/165/126 70/133/95 71/132/82
f 160/145/107 149/142/104 76/120/83 68/123/86
f 154/153/115 145/150/112 74/124/87 66/127/90
f 158/161/123 156/158/120 72/128/91 80/131/94
f 150/165/126 155/168/128 79/134/96 70/133/95
f 152/138/100 148/137/99 71/119/82 77/118/81
f 147/146/108 160/145/107 68/123/86 75/122/85
f 159/154/116 154/153/115 66/127/90 73/126/89
f 153/162/124 158/161/123 80/131/94 78/130/93
f 146/141/103 152/138/100 77/118/81 69/121/84
f 157/149/111 147/146/108 75/122/85 67/125/88
f 151/157/119 159/154/116 73/126/89 65/129/92
f 155/168/128 153/162/124 78/130/93 79/134/96
